PathFileType	4	(X/Y/Z)	Patient4_TMGait_0pt2_01_right_03.trc.trc
DataRate	CameraRate	NumFrames	NumMarkers	Units	OrigDataRate	OrigDataStartFrame	OrigNumFrames
40.345821325648	40.345821325648	4	33	mm	40.345821325648	53	       141
Frame#	Time	Sacral			L.Shoulder			Chest			R.Shoulder			Neck			R.ASIS			L.ASIS			R.Thigh.Superior			R.Thigh.Lateral			R.Thigh.Inferior			R.Patella			L.Thigh.Superior			L.Thigh.Lateral			L.Thigh.Inferior			L.Patella			L.Shank.Superior			L.Shank.Lateral			L.Shank.Inferior			R.Shank.Superior			R.Shank.Lateral			R.Shank.Inferior			R.Heel			R.Midfoot.Superior			R.Midfoot.Lateral			R.Toe			L.Heel			L.Midfoot.Lateral			L.Midfoot.Superior			L.Toe			L.Elbow			L.Wrist			R.Elbow			R.Wrist			
		X1	Y1	Z1	X2	Y2	Z2	X3	Y3	Z3	X4	Y4	Z4	X5	Y5	Z5	X6	Y6	Z6	X7	Y7	Z7	X8	Y8	Z8	X9	Y9	Z9	X10	Y10	Z10	X11	Y11	Z11	X12	Y12	Z12	X13	Y13	Z13	X14	Y14	Z14	X15	Y15	Z15	X16	Y16	Z16	X17	Y17	Z17	X18	Y18	Z18	X19	Y19	Z19	X20	Y20	Z20	X21	Y21	Z21	X22	Y22	Z22	X23	Y23	Z23	X24	Y24	Z24	X25	Y25	Z25	X26	Y26	Z26	X27	Y27	Z27	X28	Y28	Z28	X29	Y29	Z29	X30	Y30	Z30	X31	Y31	Z31	X32	Y32	Z32	X33	Y33	Z33	

53	5.798857142857	846.966676756895	997.446821136261	576.512858928702	1024.662420174386	1429.232380902489	397.066250794383	1122.157992115428	1364.459146079878	563.253286119659	1027.968873496590	1434.757148482276	733.428779801156	1002.497427708344	1491.034523774144	554.384798649492	1076.855413874339	937.247795802798	697.455491231711	1065.691405656210	958.294209519439	424.039277444226	1116.320205241381	734.508633171062	651.673320593760	1034.766179573464	619.419395824559	703.135688158597	1109.551148125052	572.325297317935	619.169736399907	1107.688968556860	479.367527840842	619.043683838847	1146.112167854149	772.577507259236	446.061820652221	1100.979351080398	651.028934689141	355.625000517814	1201.460136845834	584.635957027700	415.785597753582	1212.347609025628	496.518611695886	399.960945488900	1146.175607242418	431.474178156743	385.777678672848	1004.722772438746	388.651341781289	336.689118106494	999.155847023761	253.047042201728	376.249447886164	1066.180084288518	392.570609418522	618.107758976703	982.615770403720	293.708298472318	673.597794543751	1010.810994601577	200.400211024717	601.568085069441	857.571314298658	45.486560142513	562.522674117155	1030.854558896588	96.717632527614	601.576885703577	940.599902177964	37.764079532191	638.215677236473	1149.368366078848	40.561115154262	629.760957680840	813.339334558530	189.102044863496	415.756584785208	863.217633187069	144.506482204252	330.242922450122	970.066085000942	144.999583609445	344.989384708491	1039.262767582742	35.491412892542	307.022630659877	961.423918005353	1082.760011737655	282.434096210404	1031.026479513747	830.918930432691	271.264894295772	1004.649567704223	1109.516557858310	897.709675723382	1199.614433905811	945.248427378110	946.747451077384	
54	5.823642857143	844.811925246982	997.414317303525	579.653969361355	1022.111609888555	1429.247582740867	399.707441285500	1121.009800028357	1363.696679552887	564.815437153832	1028.736368949613	1433.990947637446	736.021669004020	1001.482401224733	1490.729091805132	557.855437189174	1075.383201296384	936.660500538939	699.000764060447	1062.445199708292	957.994745405183	425.699381133291	1114.379574730107	734.063563195139	653.597408217729	1032.784877469640	619.052597539328	704.966033605909	1107.767482900026	571.938419266250	621.184991073302	1105.778745867096	478.706646960715	621.258964945180	1144.198008747547	774.193694335382	446.948444253897	1099.757260582813	652.301872388906	356.206969356247	1201.397595900990	587.007822627043	415.535977467908	1213.439540376739	499.139020886725	399.400338780639	1148.251966551106	433.251334390812	385.356852750649	1007.102991322110	388.139940999363	337.637022115101	1005.013526092471	252.328309841173	376.462516387320	1063.497124635009	392.149290745958	619.820552539940	978.867929638458	293.737647486834	674.738949478922	1006.975021306211	200.419902892987	602.539603204678	852.799333384408	46.004826143300	562.600698321603	1026.335559221448	96.844845936647	601.940672875735	935.787645078596	37.874504215142	638.190979265047	1144.557787062762	40.093224591735	629.849044330959	821.663191444461	182.305019393086	417.547957788534	871.738338835747	141.634448078745	330.539745175214	978.256318153639	145.563812366745	344.495420067460	1050.545625387669	37.752592153915	302.936238641657	949.210458055805	1084.883525813508	286.323556767879	1001.968139540116	828.556649168745	278.052118701045	1016.560827064449	1108.225819088464	900.622967054332	1223.243776079162	958.037439200971	945.230504474051	
55	5.848428571429	842.594371556641	997.570510080664	582.353927519853	1019.802711893208	1429.480455187554	402.210088514290	1119.939599878537	1363.026780933585	566.265231832972	1029.498255167911	1433.278479102491	738.432117656876	1000.571510545842	1490.542546237694	561.053221908508	1073.778803245790	936.167338597812	700.204520670194	1059.202361815356	957.831794430040	427.021363776566	1112.124800454483	733.680670344681	655.165682156823	1030.433632062823	618.797362039552	706.512923149533	1105.553407404630	571.604415933407	622.895976977618	1103.365347782394	478.173030939496	623.182855024746	1141.399002096106	775.194578532714	447.295271563990	1096.864153603158	653.125591011735	356.458956951467	1199.338020642163	588.585382304463	414.899085964024	1212.422664949448	501.305230533486	398.537855257649	1148.833682722504	434.546017750415	384.586470040126	1008.800221888316	385.723680489742	337.953446753358	1011.496797829186	249.899235667181	376.114792914479	1060.454965330826	391.833004246354	621.305676543626	974.888820733265	293.827439579519	675.691448092019	1002.983340778421	200.495554035895	603.405482910018	848.023116651212	46.498763699373	562.695209626191	1021.793017101580	96.995783231765	602.294584361531	930.957678800071	37.984283201725	638.167555118420	1139.714878179439	39.698331618164	629.932084712902	831.641180095731	171.559794471291	418.398064878330	882.496312165875	135.653384894190	330.029252988862	988.319532749157	144.473507761494	343.444222378254	1065.126534043453	40.224362429452	298.515279188482	937.951952936503	1087.575996085662	289.633427779783	975.064765811722	828.108952351546	285.140601909491	1029.074402744722	1107.062457323774	902.599105316675	1246.290498234270	971.472291699752	942.191946306217	
56	5.873214285714	840.303418822447	997.893832611847	584.644725483597	1017.692028518645	1429.899299885872	404.549271732078	1118.936419492442	1362.426096779889	567.561909682299	1030.268722669845	1432.593171724568	740.639352671642	999.753615541100	1490.451975576832	563.962461456599	1072.057487007464	935.747857609382	701.038697465453	1055.910408697995	957.794718220040	427.978716411765	1109.547321805481	733.335608340223	656.286647571012	1027.731071597231	618.626013561298	707.722066250505	1102.870271592449	571.302554761565	624.196854635258	1100.410748317707	477.751807851955	624.694246463355	1137.772415112996	775.617167777283	447.164079440342	1092.495432478171	653.518192166937	356.407355980615	1195.442382985039	589.393127567099	413.989326671665	1209.494981362667	503.042412524783	397.481318176978	1148.113596115916	435.393535107716	383.549241229678	1010.095472408064	381.572312409908	337.562883643948	1018.710531753285	246.003234073507	375.185265449951	1057.029649833174	391.601092799600	622.473093325049	970.703469265848	293.942458926999	676.413573190242	998.811653370160	200.596147994721	604.108933073058	843.225639606582	46.928141506983	562.797148674330	1017.195188269117	97.149801495100	602.607998592126	926.099430483455	38.082933000298	638.147143904002	1134.833105778212	39.386811519376	630.007113158702	843.348467296483	157.675719195939	418.116409836111	895.497791077772	127.023693665531	328.660284176856	1000.228199394953	141.839245150055	341.865161736740	1082.620352335737	42.718439741453	294.119229294039	927.650719975975	1090.674381046174	292.431130552377	950.522534737773	829.227291306876	292.294781670726	1042.079365288338	1106.041650882056	903.576245460838	1268.553640513517	985.382810588130	937.638491022273	
